<svg xmlns="http://www.w3.org/2000/svg" xmlns:xlink="http://www.w3.org/1999/xlink" viewBox="0 0 24 30" version="1.1" x="0px" y="0px"><title>heart</title><desc>Created with Sketch.</desc><g stroke="none" stroke-width="1" fill="none" fill-rule="evenodd"><path d="M17.9384945,5.73571449 C18.9444566,6.38259154 19.6684054,7.40362627 19.9074289,8.55104314 C20.1326956,9.63526894 19.9452599,10.7810229 19.3623178,11.7355407 C18.9736897,12.3718859 16.5475978,14.7833942 12.0840421,18.9700655 L12.0791227,18.9738428 C12.0366003,19.0064935 11.9747709,19.0084271 11.9300229,18.9804849 L11.9157895,18.9700655 C7.45234605,14.7833942 5.02631029,12.3718859 4.63768221,11.7355407 C4.05474008,10.7810229 3.86730441,9.63526894 4.09257113,8.55104314 C4.3315946,7.40362627 5.05554338,6.38259154 6.06150545,5.73571449 C7.15344719,5.03229805 8.54803735,4.82443268 9.81193842,5.15036559 C10.4602251,5.31665789 11.0586436,5.62429865 11.5745215,6.03670355 C11.723492,6.15644259 11.8632116,6.28670631 12.0001087,6.41950197 C12.1786023,6.24876896 12.3203922,6.12116948 12.4254785,6.03670355 C12.9413564,5.62429865 13.5397749,5.31665789 14.1880616,5.15036559 C15.4519626,4.82443268 16.8465528,5.03229805 17.9384945,5.73571449 Z" fill="#000000"/></g><text x="0" y="39" fill="#000000" font-size="5px" font-weight="bold" font-family="'Helvetica Neue', Helvetica, Arial-Unicode, Arial, Sans-serif">Created by Justin Henry</text><text x="0" y="44" fill="#000000" font-size="5px" font-weight="bold" font-family="'Helvetica Neue', Helvetica, Arial-Unicode, Arial, Sans-serif">from the Noun Project</text></svg>