<svg xmlns="http://www.w3.org/2000/svg" xmlns:xlink="http://www.w3.org/1999/xlink" viewBox="0 0 24 30" version="1.1" x="0px" y="0px"><title>heart-outline</title><desc>Created with Sketch.</desc><g stroke="none" stroke-width="1" fill="none" fill-rule="evenodd"><path d="M17.9384945,5.73571449 C18.9444566,6.38259154 19.6684054,7.40362627 19.9074289,8.55104314 C20.1326956,9.63526894 19.9452599,10.7810229 19.3623178,11.7355407 L19.3365551,11.7758516 C18.875831,12.4690563 16.4583267,14.8671276 12.0840421,18.9700655 L12.0791227,18.9738428 C12.0366003,19.0064935 11.9747709,19.0084271 11.9300229,18.9804849 L11.9157895,18.9700655 L10.8836813,17.9993475 C7.07721974,14.4089139 4.99522005,12.3209783 4.63768221,11.7355407 C4.05474008,10.7810229 3.86730441,9.63526894 4.09257113,8.55104314 C4.3315946,7.40362627 5.05554338,6.38259154 6.06150545,5.73571449 C7.15344719,5.03229805 8.54803735,4.82443268 9.81193842,5.15036559 C10.4602251,5.31665789 11.0586436,5.62429865 11.5745215,6.03670355 C11.723492,6.15644259 11.8632116,6.28670631 12.0001087,6.41950197 L12.0862969,6.33772992 C12.224846,6.20743395 12.3379066,6.10709183 12.4254785,6.03670355 C12.9413564,5.62429865 13.5397749,5.31665789 14.1880616,5.15036559 C15.4519626,4.82443268 16.8465528,5.03229805 17.9384945,5.73571449 Z M9.56222929,6.11868648 C8.55726753,5.85952845 7.45113019,6.03006295 6.60237376,6.57682178 C5.81251418,7.08473559 5.25363072,7.88093802 5.07166206,8.75446627 C4.89601653,9.59986147 5.04577819,10.4851369 5.49111292,11.2143344 L5.51139845,11.245835 C5.8618194,11.7664618 7.88463452,13.7906212 11.3867058,17.0988381 L11.9998333,17.677 L13.0465122,16.6888836 C16.2807286,13.6247204 18.1511282,11.7463706 18.4881247,11.2465427 L18.5088871,11.2143344 C18.9542218,10.4851369 19.1039835,9.59986147 18.9284447,8.75497964 C18.7511607,7.90393912 18.2166398,7.12669489 17.459501,6.61751534 L17.3976262,6.57682178 C16.5488698,6.03006295 15.4427325,5.85952845 14.436528,6.1190061 C13.9373374,6.24705369 13.4651078,6.48586425 13.051967,6.81613419 L13.0090179,6.85164053 C12.9469701,6.90414442 12.8659588,6.97718386 12.7679728,7.06940369 L12.6913315,7.14214371 L11.9952411,7.80796952 L11.3038362,7.1372795 L11.2214496,7.05819652 C11.1167814,6.95892849 11.0315348,6.88325014 10.9501012,6.81779203 C10.5348922,6.48586425 10.0626626,6.24705369 9.56222929,6.11868648 Z" fill="#000000"/></g><text x="0" y="39" fill="#000000" font-size="5px" font-weight="bold" font-family="'Helvetica Neue', Helvetica, Arial-Unicode, Arial, Sans-serif">Created by Justin Henry</text><text x="0" y="44" fill="#000000" font-size="5px" font-weight="bold" font-family="'Helvetica Neue', Helvetica, Arial-Unicode, Arial, Sans-serif">from the Noun Project</text></svg>